
<svg version="1.1" xmlns="http://www.w3.org/2000/svg" xmlns:xlink="http://www.w3.org/1999/xlink" x="0px" y="0px"
	 viewBox="0 0 400 400" style="enable-background:new 0 0 400 400;" xml:space="preserve">
<style type="text/css">
	.st0{fill:#1A1A1A;}
	.st1{fill:#435D65;}
</style>
<g id="container">
	<circle class="st0" cx="200" cy="200.118" r="197.5"/>
</g>
<g id="dots">
	<path class="st1" d="M182.57,324.18c-0.01-9.67,7.83-17.51,17.49-17.51l0,0c9.66-0.01,17.5,7.82,17.509,17.49l0,0
		c0.011,9.659-7.829,17.5-17.49,17.51l0,0C190.42,341.67,182.58,333.84,182.57,324.18z"/>
	<path class="st1" d="M99.91,300.26L99.91,300.26L99.91,300.26c-6.84-6.83-6.85-17.91-0.02-24.75l0,0
		c6.83-6.84,17.91-6.85,24.75-0.02l0,0c6.84,6.829,6.85,17.909,0.02,24.75l0,0c-3.42,3.42-7.9,5.13-12.38,5.13l0,0
		C107.8,305.37,103.33,303.67,99.91,300.26z"/>
	<path class="st1" d="M275.45,299.95c-6.83-6.83-6.841-17.95,0-24.95h-0.011c6.841-6,17.92-6.64,24.75,0.2l0,0
		c6.841,6.83,6.841,18.01,0.011,24.84l0,0c-3.42,3.42-7.9,5.08-12.381,5.08l0,0C283.35,305.12,278.87,303.36,275.45,299.95z"/>
	<path class="st1" d="M58.33,200.34c-0.01-9.66,7.82-17.6,17.48-17.61l0,0c9.67-0.01,17.51,7.955,17.52,17.615l0,0
		C93.34,210.005,85.52,218,75.85,218l0,0c0,0-0.01,0-0.02,0l0,0C66.18,218,58.34,210,58.33,200.34z"/>
	<path class="st1" d="M307,200L307,200c0,0,0,0,0-0.01l0,0c0-0.07,0-0.15,0-0.23l0,0c0-9.67,7.625-17.52,17.295-17.54l0,0
		c9.66-0.02,17.427,7.79,17.458,17.46l0,0c0,0.06-0.041,0.12-0.051,0.18l0,0c0.01,0.05-0.011,0.09-0.011,0.14l0,0l0,0l0,0
		c0,9.66-7.685,17.5-17.345,17.5l0,0C314.675,217.5,307,209.66,307,200z"/>
	<path class="st1" d="M99.72,124.72c-6.84-6.83-6.86-17.91-0.03-24.75l0,0c6.82-6.84,17.9-6.86,24.74-0.04l0,0
		c6.85,6.83,6.86,17.91,0.04,24.75l0,0c-3.42,3.43-7.91,5.15-12.39,5.15l0,0C107.61,129.82,103.14,128.12,99.72,124.72z"/>
	<path class="st1" d="M275.27,124.43L275.27,124.43c-6.85-6.83-6.87-17.725-0.04-24.565l0,0c6.82-6.85,33.021-10.115,33.021-10.115
		L299.979,100c0,0-0.007,0-0.01,0l0,0c6.85,0,6.87,17.715,0.05,24.565l0,0c-3.42,3.43-15.504,18.179-20.27,21.185l7.87-16.128
		C283.16,129.622,278.689,127.83,275.27,124.43z"/>
	<path class="st1" d="M217.281,75.226c0.056-14.845-27.521-36.979-27.521-36.979l10,20c-0.901,0.002-1.779,0.092-2.644,0.224
		c-0.176-0.035-0.346-0.084-0.525-0.114c-14.644-2.481-40.789,22.317-40.789,22.317l21.017-7.184
		c-2.58,14.619,20.732,41.144,20.732,41.144l-6.399-21.426c2.018,0.349,4.01,0.322,5.92,0.002c1.124,0.201,2.282,0.305,3.465,0.299
		c14.853-0.083,36.205-29.015,36.205-29.015L217.281,75.226z"/>
</g>
</svg>
