<?xml version="1.0" encoding="utf-8"?>
<!-- Generator: Adobe Illustrator 18.1.1, SVG Export Plug-In . SVG Version: 6.00 Build 0)  -->
<svg version="1.1" id="Layer_1" xmlns="http://www.w3.org/2000/svg" xmlns:xlink="http://www.w3.org/1999/xlink" x="0px" y="0px"
	 viewBox="0 0 107.2 106.5" style="enable-background:new 0 0 107.2 106.5;" xml:space="preserve">
<style type="text/css">
	.st0{fill:url(#SVGID_1_);}
	.st1{fill:url(#SVGID_2_);}
	.st2{fill:url(#SVGID_3_);}
	.st3{fill:url(#SVGID_4_);}
	.st4{fill:url(#SVGID_5_);}
</style>
<g id="ninja-star-shadow">
	<polyline points="68.2,33.4 75.3,26.3 75.7,17.2 107.2,2.6 92.5,34.1 83.5,34.6 76.5,41.6 	"/>
	<polyline points="75.7,67.8 82.9,75 92.4,75.1 107.2,106.5 75.7,91.8 75.2,82.7 67.4,75.9 	"/>
	<polyline points="42,75.3 34.8,82.5 34.4,91.7 2.8,106.3 17.5,74.8 26.6,74.3 34,66.9 	"/>
	<polyline points="34,41.5 26.8,34.2 17.9,33.5 3.4,1.9 34.5,17 34.6,26.5 41.8,33.7 	"/>
	<path d="M72.5,37c-9.6-9.6-25.2-9.7-34.8-0.1C28,46.5,28,62.1,37.6,71.8s25.2,9.7,34.8,0.1C82.1,62.3,82.1,46.7,72.5,37z
		 M60.9,62.2c-2,2-4.6,2.9-7.2,2.8l-1.5,2.9l-0.5-3.2c-1.6-0.4-3.1-1.2-4.3-2.5c-1.2-1.2-2.1-2.7-2.5-4.3l-3.2-0.5l2.9-1.5
		c-0.1-2.6,0.8-5.2,2.8-7.2c0.5-0.5,0.9-0.8,1.5-1.1l-0.7-3.2l2.4,2.4c3.1-1.1,6.6-0.7,9.2,1.4l3.3-1.7l-1.8,3.3
		c2.1,2.6,2.5,6.1,1.3,9.2l2.4,2.4l-3.2-0.7C61.7,61.4,61.4,61.7,60.9,62.2z"/>
</g>
<g id="ninja-star">
	
		<linearGradient id="SVGID_1_" gradientUnits="userSpaceOnUse" x1="279.177" y1="310.4367" x2="303.0442" y2="310.4367" gradientTransform="matrix(0.7071 0.7071 -0.7071 0.7071 100.3414 -407.4787)">
		<stop  offset="5.618000e-003" style="stop-color:#85878D"/>
		<stop  offset="0.5281" style="stop-color:#979899"/>
		<stop  offset="1" style="stop-color:#5D5C62"/>
	</linearGradient>
	<polyline class="st0" points="65.2,31.3 72.2,24.2 72.6,15 104.1,0.4 89.5,32 80.4,32.5 73.4,39.5 	"/>
	
		<linearGradient id="SVGID_2_" gradientUnits="userSpaceOnUse" x1="483.8192" y1="-36.1584" x2="507.4127" y2="-36.1584" gradientTransform="matrix(-0.7071 0.7071 -0.7071 -0.7071 411.5264 -289.2099)">
		<stop  offset="5.618000e-003" style="stop-color:#85878D"/>
		<stop  offset="0.5281" style="stop-color:#979899"/>
		<stop  offset="1" style="stop-color:#5D5C62"/>
	</linearGradient>
	<polyline class="st1" points="72.7,65.6 80,72.9 89.5,73 104.3,104.3 72.8,89.6 72.3,80.6 64.5,73.8 	"/>
	
		<linearGradient id="SVGID_3_" gradientUnits="userSpaceOnUse" x1="269.2472" y1="-126.2041" x2="293.1161" y2="-126.2041" gradientTransform="matrix(-0.7071 -0.7071 0.7071 -0.7071 305.632 196.3211)">
		<stop  offset="5.618000e-003" style="stop-color:#85878D"/>
		<stop  offset="0.5281" style="stop-color:#979899"/>
		<stop  offset="1" style="stop-color:#5D5C62"/>
	</linearGradient>
	<polyline class="st2" points="39.1,73.3 31.9,80.5 31.5,89.7 0,104.4 14.6,72.8 23.7,72.3 31,64.9 	"/>
	
		<linearGradient id="SVGID_4_" gradientUnits="userSpaceOnUse" x1="-137.2716" y1="201.767" x2="-113.8089" y2="201.767" gradientTransform="matrix(0.7071 -0.7071 0.7071 0.7071 -36.3122 -213.6734)">
		<stop  offset="5.618000e-003" style="stop-color:#85878D"/>
		<stop  offset="0.5281" style="stop-color:#979899"/>
		<stop  offset="1" style="stop-color:#5D5C62"/>
	</linearGradient>
	<polyline class="st3" points="31,39.5 23.8,32.2 14.8,31.6 0.2,0 31.4,15 31.6,24.5 38.8,31.7 	"/>
	
		<linearGradient id="SVGID_5_" gradientUnits="userSpaceOnUse" x1="266.3857" y1="359.2842" x2="315.6506" y2="359.2842" gradientTransform="matrix(0.7071 0.7071 -0.7071 0.7071 100.3414 -407.4787)">
		<stop  offset="5.618000e-003" style="stop-color:#85878D"/>
		<stop  offset="6.404676e-002" style="stop-color:#8C8E92"/>
		<stop  offset="0.1871" style="stop-color:#959697"/>
		<stop  offset="0.3954" style="stop-color:#979899"/>
		<stop  offset="1" style="stop-color:#5D5C62"/>
	</linearGradient>
	<path class="st4" d="M69.5,34.9c-9.6-9.6-25.2-9.6-34.8,0c-9.6,9.6-9.6,25.2,0,34.8s25.2,9.6,34.8,0C79.1,60.2,79.1,44.6,69.5,34.9
		z M57.9,60.2c-2,2-4.6,2.9-7.2,2.8l-1.5,2.9l-0.5-3.2c-1.6-0.4-3.1-1.2-4.3-2.5c-1.2-1.2-2.1-2.7-2.5-4.3l-3.2-0.5l2.9-1.5
		c-0.1-2.6,0.8-5.2,2.8-7.2c0.5-0.5,0.9-0.8,1.5-1.2l-0.7-3.2l2.4,2.4c3.1-1.1,6.6-0.7,9.2,1.3l3.3-1.7l-1.8,3.3
		c2.1,2.6,2.5,6.1,1.4,9.2l2.4,2.4l-3.2-0.7C58.7,59.3,58.5,59.7,57.9,60.2z"/>
</g>
</svg>
